<svg width="1200" height="1815" viewBox="0 0 1200 1815" fill="none"
  xmlns="http://www.w3.org/2000/svg">
  <g opacity="0.03">
    <path
      d="M592.781 1405.52C633.679 1361.39 675.56 1315.09 734.549 1292.33C794.695 1269.12 861.88 1273.35 925.436 1274.35C1003.83 1275.58 1081.11 1272.95 1158.09 1257.74C1172.13 1254.97 1186.08 1251.69 1200 1248.11V1401.51C1092.17 1395.12 977.933 1367.79 918.436 1480.38C873.26 1565.88 910.453 1674.29 1025.52 1648.19C1078.18 1636.24 1125.78 1610.47 1179.89 1602.77C1186.39 1601.83 1193.11 1601.24 1200 1600.9V1716.87C1164.11 1726.44 1130.22 1742.22 1096.79 1759.77C1029.45 1795.09 978.62 1816.15 899.509 1814.28C781.491 1811.51 670.788 1740.87 571.029 1685.31C462.869 1625.07 364.568 1598.11 237.873 1600.28C165.3 1601.5 105.038 1616.15 37.7059 1641.11C25.3592 1645.67 12.7716 1649.55 0 1652.74V1368.97C89.7852 1413.04 171.369 1475.51 264.519 1515.58C407.219 1576.96 500.459 1505.13 592.781 1405.52Z"
      fill="white" />
    <path
      d="M384.439 1238.08C412.183 1239.81 439.26 1228.52 464.455 1195.76C482.387 1172.46 473.029 1147.31 466.876 1121.48C458.579 1086.63 456.01 1051.8 450.377 1016.65C442.375 966.732 422.677 920.729 395.742 877.41C365.293 828.426 322.905 782.461 272.907 745.994C207.302 698.147 128.602 666.684 46.5753 666.292C30.9127 666.129 15.2838 667.778 0 671.205V1042.5C47.4037 1067.11 103.523 1080.94 159.802 1101.22C221.778 1123.55 305.79 1233.17 384.439 1238.08ZM162.866 1030.53C120.131 1021.7 77.5569 1018.08 47.0891 984.702C27.5007 963.232 15.3495 933.381 12.0035 905.604C5.58107 852.298 22.9665 801.105 75.9706 775.871C156.726 737.465 190.212 818.304 208.985 870.011C246.485 973.277 279.06 957.998 363.469 1010.66C398.895 1032.78 409.711 1079.8 381.118 1111.68C348.621 1147.91 304.229 1120.78 274.834 1096.22C239.658 1066.83 210.25 1040.32 162.885 1030.53H162.866Z"
      fill="white" />
    <path
      d="M127.831 33.5693C84.3004 43.3763 40.8079 52.5282 0.0256348 65.2831V617.282C33.1524 618.746 67.1012 613.364 100.112 603.705C168.46 583.693 226.634 560.803 291.14 572.235C310.465 575.665 330.362 582.184 351.267 592.787C396.166 615.561 423.345 676.432 451.129 715.224C479.747 755.165 513.323 785.087 567.265 787.919C619.01 790.623 677.127 771.131 724.614 795.992C759.577 814.289 791.612 847.859 805.491 883.189C816.807 911.98 813.969 939.706 832.536 966.481C875.566 1028.59 952.474 1083.37 1027.51 1105.12C1072.94 1118.3 1121.51 1118.06 1167.25 1105.41C1178.41 1102.33 1189.35 1098.5 1200 1093.95V949.622C1197.43 950.136 1194.75 950.611 1192.04 951.022C1132.56 959.866 1067.39 943.611 1017.16 913.098C894.775 838.752 978.684 762.814 1068.84 724.748C1101.75 710.85 1155.46 679.791 1192.04 680.838C1194.7 680.921 1197.35 681.168 1199.98 681.577V580.475C1108.42 579.692 1028.32 626.806 940.117 641.841C940.099 641.836 940.079 641.836 940.06 641.841C855.689 656.163 740.567 547.798 718.262 481.924C674.532 352.756 761.119 219.973 782.775 96.3739C799.473 0.969162 787.566 -103.832 696.387 -163.091C604.791 -222.633 502.733 -187.567 421.38 -130.337C325.365 -62.7988 247.956 6.51813 127.831 33.5693ZM383.713 0.712296C421.682 -29.6657 468.045 -61.2189 518.795 -36.0303C564.612 -13.2885 582.544 42.7212 558.8 85.6293C509.072 175.504 463.665 251.802 504.923 356.616C520.844 397.077 546.585 438.45 531.364 482.823C516.143 527.195 471.218 541.106 428.303 521.447C403.975 510.298 382.505 494.03 360.399 479.534C320.317 453.235 278.925 423.756 228.997 419.324C176.899 414.694 108.539 410.564 68.026 375.087C38.2775 349.038 22.5298 262.753 26.5438 226.042C36.0553 139.077 101.281 115.166 180.45 94.4858C252.843 75.5718 314.8 55.8486 383.713 0.712296Z"
      fill="white" />
  </g>
</svg>